<?xml version="1.0" encoding="UTF-8"?><svg id="Layer_2" xmlns="http://www.w3.org/2000/svg" viewBox="0 0 200 286.16"><defs><style>.cls-1{fill:none;}.cls-1,.cls-2,.cls-3,.cls-4{stroke:#ffffff;}.cls-1,.cls-2,.cls-4{stroke-linecap:round;stroke-linejoin:round;}.cls-1,.cls-4{stroke-width:6px;}.cls-2{stroke-width:4px;}.cls-2,.cls-3,.cls-4{fill:#59bf91;}.cls-5{fill:#ffffff;}.cls-3{stroke-miterlimit:10;stroke-width:2px;}</style></defs><g id="Layer_2-2"><path class="cls-2" d="m62.51,95.74s-.78-14.33,0-15.9,13.48-1.76,15-.98,1.5,16.83,1.5,16.83"/><path class="cls-2" d="m82.25,213.03s-3.18-42.22,0-46.65,41.07-2.66,43.43,0,.62,42.32-1.47,46.65h-41.97Z"/><path class="cls-3" d="m12.65,27.05c.5-.07,1.03-.12,1.6-.15.57-.03,1.12-.07,1.67-.1.55-.03,1.06-.06,1.52-.08.47-.02.85-.02,1.15-.02,1.4,0,2.52.2,3.38.6.85.4,1.27,1.05,1.27,1.95,0,1.07-.59,1.88-1.77,2.42-1.18.55-2.79.83-4.83.83-1.23,0-2.6-.1-4.1-.3.03,1.33.14,2.72.33,4.15.18,1.43.42,2.67.73,3.7.2.43.36.95.47,1.55.12.6.18,1.18.18,1.75,0,.67-.12,1.19-.38,1.58-.25.38-.57.67-.95.85-.38.18-.81.3-1.27.35-.47.05-.93.07-1.4.07-1,0-1.94-.09-2.83-.27-.88-.18-1.67-.58-2.38-1.17-.97-.83-1.72-2-2.25-3.5-.53-1.5-.93-3.12-1.2-4.88-.27-1.75-.43-3.51-.5-5.28-.07-1.77-.1-3.32-.1-4.65,0-1.17.03-2.44.1-3.82.07-1.38.24-2.74.52-4.08.28-1.33.73-2.57,1.32-3.7.6-1.13,1.45-2.02,2.55-2.65.7-.43,1.52-.77,2.45-1,.93-.23,1.88-.41,2.85-.52.97-.12,1.91-.18,2.83-.2.92-.02,1.71-.02,2.38-.02h2.95c.6,0,1.21.04,1.83.12.62.08,1.17.25,1.67.5s.91.62,1.23,1.1c.32.48.48,1.14.48,1.98s-.17,1.46-.52,1.88c-.35.42-.84.72-1.48.9-.63.18-1.41.27-2.33.27h-6.38c-.37,1.63-.62,3.35-.75,5.15-.13,1.8-.15,3.37-.05,4.7Z"/><path class="cls-3" d="m33.5,46.3c-1.17,0-2.15-.12-2.95-.35-.8-.23-1.38-.85-1.75-1.85-.23-.63-.41-1.47-.52-2.5-.12-1.03-.2-2.12-.25-3.25-.05-1.13-.08-2.22-.08-3.25v-13.5c0-1.2,0-2.45.02-3.75.02-1.3.22-2.49.6-3.57.38-1.08,1.04-1.98,1.98-2.68.93-.7,2.3-1.05,4.1-1.05.7,0,1.34.07,1.92.2.58.13,1.08.38,1.5.75.42.37.74.87.98,1.5.23.63.35,1.45.35,2.45v8.45c0,1.13,0,2.24.02,3.32.02,1.08.02,2.14.02,3.18s0,2.03.02,3.1c.02,1.07.02,2.12,0,3.15-.02,1.03-.07,2.03-.15,3-.08.97-.21,1.85-.38,2.65-.2.93-.47,1.67-.8,2.2-.33.53-.73.93-1.18,1.2-.45.27-.97.43-1.55.5-.58.07-1.23.1-1.93.1ZM28.45,5.55c0-.8.17-1.48.5-2.05.33-.57.76-1.04,1.27-1.43.52-.38,1.11-.66,1.77-.82.67-.17,1.33-.25,2-.25.7,0,1.38.09,2.05.27.67.18,1.26.46,1.77.82.52.37.93.83,1.25,1.4.32.57.48,1.23.48,2s-.16,1.44-.48,2.02c-.32.58-.73,1.07-1.25,1.45-.52.38-1.11.68-1.77.88-.67.2-1.35.3-2.05.3s-1.38-.09-2.05-.27c-.67-.18-1.26-.47-1.77-.85-.52-.38-.93-.87-1.25-1.45-.32-.58-.48-1.26-.48-2.02Z"/><path class="cls-3" d="m58.1,16.2c-.5,0-.89.16-1.17.48-.28.32-.48.66-.58,1.02-.1.3-.17.75-.23,1.35-.05.6-.08,1.25-.1,1.95-.02.7-.03,1.4-.05,2.1-.02.7-.02,1.33-.02,1.9,0,3.1.11,6.2.33,9.3.22,3.1.61,6.18,1.17,9.25.03.03.05.17.05.4,0,.5-.31.89-.92,1.18-.62.28-1.33.5-2.15.65-.82.15-1.62.24-2.4.27-.78.03-1.34.05-1.68.05-.43,0-.92-.05-1.48-.15-.55-.1-1.02-.43-1.42-1-.4-.57-.76-1.45-1.08-2.65-.32-1.2-.59-2.58-.82-4.12-.23-1.55-.43-3.17-.6-4.88-.17-1.7-.31-3.32-.42-4.85-.12-1.53-.2-2.91-.25-4.12-.05-1.22-.08-2.11-.08-2.67,0-2.07.32-3.88.95-5.45.63-1.57,1.52-2.88,2.65-3.95,1.13-1.07,2.49-1.88,4.07-2.43,1.58-.55,3.33-.82,5.23-.82,2.67,0,4.92.5,6.75,1.5,1.83,1,3.33,2.37,4.48,4.1,1.15,1.73,1.98,3.78,2.48,6.12.5,2.35.75,4.86.75,7.53,0,.63,0,1.48.02,2.55.02,1.07.02,2.6.02,4.6,0,1.03-.02,2.02-.05,2.95-.07.83-.13,1.67-.2,2.5-.07.83-.18,1.5-.35,2-.33,1.03-.93,1.73-1.8,2.08-.87.35-1.73.52-2.6.52-.53,0-1.12-.07-1.75-.23-.63-.15-1.23-.47-1.77-.97s-1.02-1.22-1.4-2.15c-.38-.93-.58-2.18-.58-3.75,0-.33,0-.9.02-1.7.02-.8.03-1.72.05-2.75.02-1.03.03-2.12.05-3.27.02-1.15.02-2.23.02-3.23,0-.83-.02-1.88-.07-3.15-.05-1.27-.18-2.5-.38-3.7-.2-1.2-.51-2.23-.93-3.08-.42-.85-1.01-1.27-1.77-1.27Z"/><path class="cls-3" d="m90.3,18.9c-.2-.67-.38-1.4-.55-2.2-.17-.8-.3-1.59-.4-2.38-.1-.78-.18-1.5-.25-2.15-.07-.65-.1-1.16-.1-1.52,0-1.03.21-1.89.62-2.58.42-.68.93-1.23,1.55-1.62.62-.4,1.26-.68,1.93-.85.67-.17,1.25-.25,1.75-.25,1.27,0,2.33.41,3.2,1.23.87.82,1.58,1.88,2.15,3.18.57,1.3,1,2.76,1.3,4.38.3,1.62.52,3.22.67,4.82.15,1.6.23,3.09.25,4.48.02,1.38.03,2.51.03,3.38,0,3.03-.12,5.71-.38,8.02-.25,2.32-.8,4.25-1.65,5.8-.85,1.55-2.08,2.72-3.7,3.5-1.62.78-3.77,1.17-6.48,1.17s-4.89-.35-6.77-1.05c-1.88-.7-3.43-1.65-4.62-2.85s-2.08-2.6-2.62-4.2c-.55-1.6-.83-3.28-.83-5.05,0-1.93.3-3.72.9-5.35.6-1.63,1.46-3.05,2.58-4.25,1.12-1.2,2.46-2.13,4.02-2.8,1.57-.67,3.32-1,5.25-1,.4,0,.79,0,1.18.02.38.02.71.06.97.12Zm.5,19.5c.07-.77.11-1.69.12-2.77.02-1.08.03-2.12.03-3.12,0-1.17-.02-2.42-.05-3.75-.03-1.33-.08-2.48-.15-3.45-.4-.67-1.03-1-1.9-1-.67,0-1.21.28-1.62.85-.42.57-.74,1.25-.98,2.05-.23.8-.39,1.62-.48,2.45-.08.83-.12,1.5-.12,2,0,.4.02,1.04.08,1.92.05.88.17,1.77.38,2.65.2.88.48,1.67.85,2.35.37.68.85,1.02,1.45,1.02.33,0,.73-.11,1.2-.32.47-.22.87-.51,1.2-.88Z"/><path class="cls-3" d="m131.8,25.35c-.37,0-.66.21-.88.62-.22.42-.38.92-.5,1.5-.12.58-.19,1.2-.22,1.85-.03.65-.05,1.21-.05,1.68,0,.93.03,1.97.1,3.12.07,1.15.17,2.32.3,3.52.13,1.2.3,2.38.5,3.55.2,1.17.42,2.25.65,3.25,0,.1.03.18.1.25v.05c-1.03.83-2.08,1.5-3.15,2-1.07.5-1.98.75-2.75.75-1.17,0-2.17-.37-3-1.1-.83-.73-1.54-1.69-2.12-2.88-.58-1.18-1.05-2.5-1.4-3.95-.35-1.45-.62-2.89-.8-4.32-.18-1.43-.31-2.78-.38-4.05-.07-1.27-.1-2.28-.1-3.05,0-1.07.05-2.26.15-3.58.1-1.32.29-2.66.58-4.02.28-1.37.67-2.71,1.17-4.02.5-1.32,1.14-2.48,1.92-3.5.78-1.02,1.73-1.83,2.83-2.45,1.1-.62,2.4-.92,3.9-.92,1.27,0,2.46.23,3.58.7,1.12.47,2.08,1.12,2.9,1.98.82.85,1.48,1.88,1.98,3.1.5,1.22.77,2.56.8,4.02.07.17.17.61.3,1.33.13.72.3,1.56.5,2.52,0-1.87.26-3.57.77-5.1.52-1.53,1.25-2.84,2.2-3.92.95-1.08,2.1-1.93,3.45-2.52,1.35-.6,2.84-.9,4.48-.9,1.4,0,2.59.34,3.57,1.03.98.68,1.79,1.57,2.43,2.67.63,1.1,1.14,2.34,1.52,3.73.38,1.38.66,2.77.83,4.17.17,1.4.27,2.76.32,4.08.05,1.32.08,2.44.08,3.38,0,2.4-.07,4.52-.2,6.35-.13,1.83-.37,3.42-.7,4.75-.53,2.03-1.33,3.52-2.38,4.45-1.05.93-2.48,1.4-4.28,1.4-.5,0-.98-.04-1.45-.12-.47-.08-.89-.23-1.27-.45-.38-.22-.69-.52-.93-.9-.23-.38-.35-.88-.35-1.48,0-.2,0-.42.03-.65.02-.23.06-.43.12-.6.13-.43.26-1.01.38-1.73.12-.72.22-1.52.3-2.4.08-.88.15-1.84.2-2.88.05-1.03.07-2.1.07-3.2-.03-1.2-.12-2.28-.25-3.25-.1-.83-.27-1.58-.52-2.25-.25-.67-.61-1-1.08-1-.4,0-.76.25-1.07.75-.32.5-.63,1.12-.95,1.88-.32.75-.64,1.56-.98,2.43-.33.87-.72,1.67-1.15,2.42-.43.75-.93,1.38-1.5,1.88-.57.5-1.22.75-1.95.75s-1.41-.27-1.93-.8c-.52-.53-.95-1.19-1.3-1.98-.35-.78-.64-1.64-.88-2.58-.23-.93-.48-1.79-.73-2.57s-.51-1.44-.77-1.98c-.27-.53-.62-.8-1.05-.8Z"/><path class="cls-3" d="m187.05,13.65c.43.83.76,1.96.98,3.38.22,1.42.36,2.96.43,4.62.07,1.67.1,3.37.1,5.1v4.8c0,1.3,0,2.68-.02,4.15-.02,1.47-.13,2.92-.35,4.35-.22,1.43-.57,2.8-1.07,4.1-.5,1.3-1.23,2.45-2.2,3.45-.97,1-2.2,1.8-3.7,2.4-1.5.6-3.37.9-5.6.9-1.53,0-3-.17-4.4-.5-1.4-.33-2.63-.86-3.7-1.58-1.07-.72-1.91-1.65-2.52-2.8-.62-1.15-.93-2.54-.93-4.18,0-.83.09-1.62.28-2.38.18-.75.48-1.41.9-1.97.42-.57.97-1.02,1.65-1.35.68-.33,1.52-.5,2.52-.5.47,0,.92.05,1.35.15.43.1.83.31,1.17.62.35.32.63.77.85,1.35.22.58.33,1.36.33,2.32,0,.13.02.5.05,1.1.03.6.12,1.22.27,1.85.15.63.38,1.21.7,1.73.32.52.77.77,1.38.77s1.12-.28,1.55-.85c.43-.57.78-1.25,1.05-2.05.27-.8.47-1.63.6-2.5.13-.87.2-1.62.2-2.25,0-.23,0-.52-.02-.88-.02-.35-.04-.73-.08-1.12s-.07-.8-.1-1.2c-.03-.4-.08-.77-.15-1.1-1.4.23-2.7.42-3.9.55-1.2.13-2.1.2-2.7.2-1.83,0-3.38-.41-4.62-1.22-1.25-.82-2.26-1.86-3.03-3.12-.77-1.27-1.32-2.69-1.65-4.28-.33-1.58-.5-3.12-.5-4.62,0-1.03.09-2.12.27-3.25.18-1.13.53-2.17,1.03-3.12.5-.95,1.2-1.73,2.1-2.35.9-.62,2.05-.93,3.45-.93.63,0,1.26.08,1.88.23.62.15,1.16.42,1.62.8.47.38.85.88,1.15,1.5.3.62.45,1.38.45,2.28,0,.8-.08,1.71-.25,2.72-.17,1.02-.25,2.03-.25,3.03,0,.4.02.94.07,1.62.05.68.18,1.37.38,2.05.2.68.48,1.27.83,1.77s.83.75,1.42.75c.57,0,1.01-.23,1.33-.67.32-.45.55-1,.7-1.65.15-.65.23-1.33.25-2.03.02-.7.02-1.3.02-1.8v-1.6c0-1.2-.16-2.36-.48-3.48-.32-1.12-.48-2.11-.48-2.97,0-.7.13-1.24.4-1.62.27-.38.58-.67.95-.85s.75-.29,1.15-.33c.4-.03.75-.05,1.05-.05,1.13,0,2.24.14,3.32.42,1.08.28,1.93.98,2.52,2.08Z"/><path class="cls-3" d="m14.7,263.01c-.37,0-.66.21-.88.62-.22.42-.38.92-.5,1.5-.12.58-.19,1.2-.22,1.85-.03.65-.05,1.21-.05,1.68,0,.93.03,1.97.1,3.12.07,1.15.17,2.32.3,3.52.13,1.2.3,2.38.5,3.55.2,1.17.42,2.25.65,3.25,0,.1.03.18.1.25v.05c-1.03.83-2.08,1.5-3.15,2-1.07.5-1.98.75-2.75.75-1.17,0-2.17-.37-3-1.1-.83-.73-1.54-1.69-2.12-2.88-.58-1.18-1.05-2.5-1.4-3.95-.35-1.45-.62-2.89-.8-4.32-.18-1.43-.31-2.78-.38-4.05-.07-1.27-.1-2.28-.1-3.05,0-1.07.05-2.26.15-3.58.1-1.32.29-2.66.58-4.02.28-1.37.67-2.71,1.17-4.02.5-1.32,1.14-2.48,1.92-3.5.78-1.02,1.73-1.83,2.83-2.45,1.1-.62,2.4-.92,3.9-.92,1.27,0,2.46.23,3.58.7,1.12.47,2.08,1.12,2.9,1.98.82.85,1.48,1.88,1.98,3.1.5,1.22.77,2.56.8,4.02.07.17.17.61.3,1.33.13.72.3,1.56.5,2.52,0-1.87.26-3.57.77-5.1.52-1.53,1.25-2.84,2.2-3.92.95-1.08,2.1-1.93,3.45-2.52,1.35-.6,2.84-.9,4.48-.9,1.4,0,2.59.34,3.57,1.03.98.68,1.79,1.57,2.43,2.67.63,1.1,1.14,2.34,1.52,3.73.38,1.38.66,2.77.83,4.17.17,1.4.27,2.76.32,4.08.05,1.32.08,2.44.08,3.38,0,2.4-.07,4.52-.2,6.35-.13,1.83-.37,3.42-.7,4.75-.53,2.03-1.33,3.52-2.38,4.45-1.05.93-2.48,1.4-4.28,1.4-.5,0-.98-.04-1.45-.12-.47-.08-.89-.23-1.27-.45-.38-.22-.69-.52-.93-.9-.23-.38-.35-.88-.35-1.48,0-.2,0-.42.03-.65.02-.23.06-.43.12-.6.13-.43.26-1.01.38-1.73.12-.72.22-1.52.3-2.4.08-.88.15-1.84.2-2.88.05-1.03.07-2.1.07-3.2-.03-1.2-.12-2.28-.25-3.25-.1-.83-.27-1.58-.52-2.25-.25-.67-.61-1-1.08-1-.4,0-.76.25-1.07.75-.32.5-.63,1.12-.95,1.88-.32.75-.64,1.56-.98,2.43-.33.87-.72,1.67-1.15,2.42-.43.75-.93,1.38-1.5,1.88-.57.5-1.22.75-1.95.75s-1.41-.27-1.93-.8c-.52-.53-.95-1.19-1.3-1.98-.35-.78-.64-1.64-.88-2.58-.23-.93-.48-1.79-.73-2.57s-.51-1.44-.77-1.98c-.27-.53-.62-.8-1.05-.8Z"/><path class="cls-3" d="m57.6,283.96c-2.47,0-4.53-.2-6.2-.6-1.67-.4-3.02-.99-4.05-1.77-1.03-.78-1.77-1.76-2.2-2.92-.43-1.17-.65-2.52-.65-4.05,0-1.8.27-3.36.8-4.67.53-1.32,1.27-2.4,2.23-3.25s2.08-1.48,3.38-1.88,2.7-.6,4.2-.6c.57,0,1.17.02,1.82.08.65.05,1.23.11,1.73.17.07-.5.1-.99.1-1.48v-1.42c0-2.27-.24-4.06-.73-5.38-.48-1.32-1.16-1.98-2.02-1.98-.3,0-.54.16-.73.48-.18.32-.32.67-.4,1.07-.08.4-.14.78-.18,1.15-.03.37-.05.62-.05.75,0,.6-.17,1.12-.52,1.57-.35.45-.78.82-1.3,1.1-.52.28-1.06.5-1.62.65-.57.15-1.07.23-1.5.23-.33,0-.78-.06-1.35-.17-.57-.12-1.12-.34-1.65-.68-.53-.33-.99-.8-1.38-1.4-.38-.6-.57-1.38-.57-2.35,0-1.27.34-2.43,1.02-3.5.68-1.07,1.61-1.98,2.77-2.75,1.17-.77,2.51-1.38,4.02-1.82,1.52-.45,3.12-.68,4.83-.68,1.93,0,3.6.29,5,.88,1.4.58,2.58,1.37,3.55,2.35.97.98,1.75,2.12,2.35,3.42.6,1.3,1.06,2.68,1.38,4.12.32,1.45.53,2.94.65,4.48.12,1.53.18,3,.18,4.4,0,3.47-.26,6.28-.77,8.43-.52,2.15-1.3,3.82-2.35,5-1.05,1.18-2.38,1.98-4,2.4-1.62.42-3.54.62-5.77.62Zm1.9-7.65c.03-.37.05-.77.05-1.23v-.98c0-.6-.04-1.25-.12-1.95-.08-.7-.19-1.42-.32-2.15-.57-.17-1.1-.29-1.6-.38-.5-.08-.88-.12-1.15-.12-.57,0-1.03.18-1.38.53-.35.35-.62.77-.83,1.27s-.33,1.02-.4,1.55c-.07.53-.1.98-.1,1.35,0,.33.03.69.1,1.08.07.38.18.75.35,1.1.17.35.42.64.75.88.33.23.77.35,1.3.35s1.11-.12,1.73-.35c.62-.23,1.16-.55,1.62-.95Z"/><path class="cls-3" d="m91.15,251.51c0,.7-.14,1.28-.43,1.73-.28.45-.65.81-1.1,1.08-.45.27-.94.45-1.48.55-.53.1-1.07.15-1.6.15-1.07,0-1.76.23-2.08.7-.32.47-.47,1.33-.47,2.6,0,1.47.1,3.08.3,4.85.2,1.77.38,3.72.55,5.85.07.8.14,1.69.23,2.68.08.98.18,1.98.3,2.98.12,1,.23,1.98.35,2.95.12.97.24,1.85.38,2.65.07.2.1.42.1.65,0,.6-.23,1.08-.67,1.45-.45.37-1.04.65-1.77.85-.73.2-1.55.34-2.45.42-.9.08-1.78.12-2.65.12-.3,0-.6-.07-.9-.2-.27-.1-.54-.26-.83-.48-.28-.22-.56-.51-.83-.88-.37-.6-.7-1.48-1-2.65-.3-1.17-.56-2.48-.77-3.93-.22-1.45-.41-2.97-.57-4.57-.17-1.6-.29-3.13-.38-4.6-.08-1.47-.15-2.81-.2-4.02-.05-1.22-.08-2.16-.08-2.83,0-2.33.24-4.27.73-5.8.48-1.53,1.2-2.76,2.15-3.68.95-.92,2.11-1.57,3.48-1.95,1.37-.38,2.92-.58,4.65-.58.97,0,1.88.06,2.75.18.87.12,1.62.32,2.25.62.63.3,1.13.7,1.5,1.2.37.5.55,1.13.55,1.9Z"/><path class="cls-3" d="m105.3,271.46c-.23,0-.35.1-.35.3,0,.87.07,1.72.22,2.55.15.83.32,1.67.5,2.52.18.85.35,1.69.5,2.52.15.83.23,1.68.23,2.55,0,.57-.26,1.02-.77,1.35-.52.33-1.12.58-1.8.75-.68.17-1.38.28-2.1.33-.72.05-1.27.08-1.68.08-.87,0-1.6-.07-2.2-.2-.6-.13-1.18-.58-1.75-1.35-.63-.83-1.13-2.04-1.5-3.62-.37-1.58-.64-3.27-.83-5.05-.18-1.78-.3-3.52-.35-5.23-.05-1.7-.07-3.08-.07-4.15,0-.83.05-1.98.15-3.43.1-1.45.27-3.03.52-4.75.25-1.72.58-3.46,1-5.22.42-1.77.93-3.37,1.55-4.8.62-1.43,1.35-2.61,2.2-3.52.85-.92,1.84-1.38,2.98-1.38.47,0,1.03.06,1.7.17.67.12,1.3.31,1.9.58.6.27,1.12.61,1.55,1.02.43.42.65.93.65,1.52,0,.2-.05.4-.15.6-.1.2-.18.4-.25.6-.4,1.17-.74,2.51-1.02,4.02-.28,1.52-.52,3.08-.7,4.68-.18,1.6-.32,3.18-.4,4.75-.08,1.57-.12,2.98-.12,4.25,1.17-.8,2.02-1.72,2.58-2.75.55-1.03.96-2.1,1.23-3.2.27-1.1.47-2.18.6-3.25.13-1.07.38-2.02.75-2.85.37-.83.92-1.51,1.65-2.02.73-.52,1.83-.77,3.3-.77.67,0,1.32.05,1.95.15.63.1,1.19.3,1.67.6.48.3.88.7,1.17,1.2.3.5.45,1.15.45,1.95,0,1.23-.23,2.51-.7,3.83-.47,1.32-1.07,2.6-1.82,3.85s-1.58,2.43-2.5,3.53c-.92,1.1-1.83,2.03-2.73,2.8.93.3,1.8.74,2.6,1.33.8.58,1.5,1.26,2.1,2.02.6.77,1.07,1.61,1.42,2.52.35.92.52,1.88.52,2.88,0,.43-.02,1.05-.07,1.85-.05.8-.14,1.61-.28,2.42-.13.82-.31,1.58-.52,2.3-.22.72-.49,1.22-.82,1.52-.23.2-.55.36-.95.48-.4.12-.82.21-1.25.27-.43.07-.87.11-1.3.12-.43.02-.8.02-1.1.02-.37,0-.85-.02-1.45-.08-.6-.05-1.18-.16-1.75-.32-.57-.17-1.06-.41-1.48-.73-.42-.32-.62-.73-.62-1.23,0-.3.04-.59.12-.88.08-.28.16-.57.23-.88.17-.77.29-1.54.38-2.32.08-.78.12-1.56.12-2.33,0-.43-.07-.92-.2-1.45-.13-.53-.33-1.02-.58-1.47-.25-.45-.57-.83-.95-1.12-.38-.3-.84-.45-1.38-.45Z"/><path class="cls-3" d="m133.65,268.81c-.13.67-.22,1.32-.27,1.95-.05.63-.07,1.23-.07,1.8,0,2,.29,3.57.88,4.7.58,1.13,1.31,1.7,2.17,1.7.53,0,.96-.2,1.27-.6.32-.4.59-.9.83-1.5.23-.6.48-1.26.73-1.98.25-.72.56-1.38.92-1.97.37-.6.85-1.1,1.45-1.5.6-.4,1.38-.6,2.35-.6,1.3,0,2.36.4,3.18,1.2.82.8,1.23,1.92,1.23,3.35s-.4,2.73-1.2,3.88-1.83,2.13-3.1,2.95c-1.27.82-2.67,1.45-4.23,1.9-1.55.45-3.07.67-4.57.67-2.17,0-4.08-.45-5.75-1.35-1.67-.9-3.06-2.11-4.18-3.62-1.12-1.52-1.96-3.28-2.52-5.3-.57-2.02-.85-4.14-.85-6.38s.28-4.47.85-6.8c.57-2.33,1.47-4.45,2.7-6.35,1.23-1.9,2.81-3.47,4.73-4.7,1.92-1.23,4.22-1.85,6.92-1.85,1.37,0,2.73.17,4.08.52,1.35.35,2.57.89,3.65,1.62,1.08.73,1.96,1.67,2.62,2.8.67,1.13,1,2.47,1,4,0,1.43-.29,2.86-.88,4.27-.58,1.42-1.38,2.69-2.4,3.83-1.02,1.13-2.2,2.06-3.55,2.77-1.35.72-2.79,1.08-4.32,1.08-.57,0-1.19-.04-1.88-.12-.68-.08-1.28-.21-1.78-.38Zm.55-5.35c.4.4.86.73,1.38.98.52.25.94.38,1.27.38.47,0,.88-.22,1.25-.65.37-.43.67-.96.92-1.58.25-.62.44-1.26.58-1.92.13-.67.2-1.22.2-1.65,0-.23-.03-.62-.08-1.17s-.15-1.1-.3-1.65c-.15-.55-.36-1.04-.62-1.48-.27-.43-.63-.65-1.1-.65-.6,0-1.12.38-1.58,1.12-.45.75-.82,1.62-1.12,2.6-.3.98-.52,1.94-.67,2.88-.15.93-.23,1.6-.23,2,0,.27.03.53.1.8Z"/><path class="cls-3" d="m163.75,275.06c.2,0,.42-.19.65-.58.23-.38.52-.81.88-1.27.35-.47.79-.89,1.32-1.27.53-.38,1.18-.58,1.95-.58.87,0,1.61.32,2.23.95.62.63.92,1.75.92,3.35,0,2.5-.81,4.39-2.42,5.67-1.62,1.28-3.74,1.92-6.38,1.92-2.37,0-4.23-.49-5.6-1.47-1.37-.98-2.39-2.24-3.08-3.78-.68-1.53-1.11-3.23-1.27-5.1-.17-1.87-.25-3.68-.25-5.45,0-1.07.02-2.2.05-3.4.03-1.2.08-2.4.12-3.6.05-1.2.12-2.37.2-3.5.08-1.13.17-2.17.27-3.1-.57.23-1.12.35-1.65.35-.7,0-1.26-.25-1.67-.75-.42-.5-.62-1.22-.62-2.15,0-.57.1-1.02.3-1.38s.47-.61.8-.77c.33-.17.72-.28,1.15-.33.43-.05.9-.08,1.4-.08h.9c-.5-1.07-.75-2-.75-2.8,0-1.2.5-2.15,1.5-2.85,1-.7,2.45-1.05,4.35-1.05.77,0,1.53.07,2.3.2.77.13,1.46.38,2.08.73.62.35,1.12.83,1.5,1.43.38.6.57,1.38.57,2.35,0,.2,0,.53-.02,1-.02.47-.04.88-.07,1.25.9-.43,1.73-.65,2.5-.65.9,0,1.6.29,2.1.88.5.58.75,1.43.75,2.52,0,.9-.26,1.59-.77,2.08-.52.48-1.21.73-2.07.73s-1.82-.23-2.95-.7c-.23,1.3-.46,2.75-.67,4.35-.22,1.6-.4,3.26-.55,4.98-.15,1.72-.27,3.46-.35,5.23-.08,1.77-.12,3.47-.12,5.1,0,.3.02.55.05.75.07.2.12.38.17.55.05.17.14.25.27.25Z"/><path class="cls-3" d="m174.15,275.06c0-1.1.14-2.04.42-2.83.28-.78.66-1.42,1.12-1.92s1.01-.87,1.62-1.1c.62-.23,1.28-.35,1.98-.35,1.1,0,1.93.28,2.5.85.57.57.85,1.33.85,2.3,0,.4.05,1,.15,1.8.1.8.28,1.61.55,2.42.27.82.63,1.53,1.1,2.15.47.62,1.05.93,1.75.93.43,0,.78-.12,1.03-.35.25-.23.44-.51.57-.83.13-.32.22-.65.25-1,.03-.35.05-.62.05-.82,0-1.33-.32-2.53-.95-3.6-.63-1.07-1.42-2.08-2.35-3.02-.93-.95-1.96-1.88-3.07-2.8-1.12-.92-2.14-1.89-3.08-2.92-.93-1.03-1.72-2.15-2.35-3.35-.63-1.2-.95-2.58-.95-4.15s.31-2.85.92-4.05c.62-1.2,1.44-2.21,2.48-3.03,1.03-.82,2.24-1.45,3.62-1.9,1.38-.45,2.84-.67,4.38-.67,1.43,0,2.83.19,4.2.57,1.37.38,2.58.93,3.65,1.62,1.07.7,1.92,1.56,2.57,2.58.65,1.02.98,2.17.98,3.48,0,.83-.14,1.57-.42,2.23-.28.65-.65,1.19-1.1,1.62-.45.43-.97.76-1.55.97-.58.22-1.19.33-1.82.33-1.07,0-2-.33-2.8-1-.8-.67-1.2-1.7-1.2-3.1,0-.27-.02-.57-.05-.9-.03-.33-.1-.65-.2-.95-.1-.3-.26-.56-.48-.77-.22-.22-.51-.32-.88-.32-.63,0-1.12.29-1.45.88-.33.58-.5,1.21-.5,1.88,0,.93.33,1.77.98,2.52s1.48,1.49,2.48,2.23c1,.73,2.07,1.51,3.2,2.32,1.13.82,2.2,1.76,3.2,2.83,1,1.07,1.83,2.31,2.48,3.73.65,1.42.98,3.11.98,5.07,0,2.07-.38,3.76-1.12,5.08-.75,1.32-1.71,2.34-2.88,3.07-1.17.73-2.48,1.23-3.95,1.5-1.47.27-2.9.4-4.3.4-4.17,0-7.31-.88-9.43-2.62-2.12-1.75-3.17-4.08-3.17-6.98Z"/><path class="cls-1" d="m44.15,214.19s-4.37-98.97,24.79-105.94c5.53-1.32,57.37.39,64.28.32,33.68-.34,25.37,105.62,25.37,105.62"/><path class="cls-4" d="m158.26,95.69c.41,29.76,15.98,45.28,15.98,45.28H26.66c14.39,0,19.79-45.23,19.79-45.23l111.81-.05Z"/><path class="cls-4" d="m52.96,140.97s11.27-23.66,14.25-45.23"/><path class="cls-4" d="m76.05,140.97s9.65-27.6,10.27-45.28"/><line class="cls-4" x1="101.71" y1="140.97" x2="101.71" y2="95.74"/><path class="cls-4" d="m151.39,139.92s-10.14-20.33-13.85-42.94"/><path class="cls-4" d="m128.3,139.92s-10.39-36.53-9.77-44.17"/><circle class="cls-5" cx="115.31" cy="188.68" r="4.4"/></g></svg>