<?xml version="1.0" encoding="UTF-8"?>
<svg id="Layer_2"
    xmlns="http://www.w3.org/2000/svg" viewBox="0 0 709.89 854.71">
    <defs>
        <style>.cls-1{opacity:.75;}.cls-1,.cls-2{fill:#fbc4ac;stroke-miterlimit:10;}.cls-1,.cls-2,.cls-3{stroke:#ffffff;}.cls-3{fill:none;stroke-linecap:round;stroke-linejoin:round;stroke-width:12px;}</style>
    </defs>
    <g id="Layer_2-2">
        <path class="cls-1" d="m451.97,133.45s125.56,110.35,89.43,299.39-276.95,237.1-276.95,237.1l.39,22.1,178.24-.33s-.9-52.05,11.19-58.61,122.63-111.29,137.52-200.26c14.9-88.97,21.91-221.93-139.82-299.39Z"/>
        <path class="cls-3" d="m599.63,357.64c0,77.74-19.89,167.13-132.95,262.56-25.41,21.45-23.61,39.57-23.61,71.5,0,0-54.72.33-89.41.33h-88.83s1.88-47.9-10.64-58.69c-88.12-75.99-151.69-157.73-146.51-275.7,6.84-155.77,121.9-254.2,245.98-252.38,135.84,2,245.98,112.99,245.98,252.38Z"/>
        <path class="cls-3" d="m6,398.63c7.65.87,43.01-11.32,49.66-10.88"/>
        <path class="cls-3" d="m9.1,167.39s51.88,30.15,58.53,35.03"/>
        <path class="cls-3" d="m225.48,6s5.76,26.6,10.2,35.91,5.76,17.74,5.76,17.74"/>
        <line class="cls-3" x1="525.21" y1="89.8" x2="557.57" y2="37.48"/>
        <line class="cls-3" x1="660" y1="364.26" x2="703.89" y2="364.26"/>
        <path class="cls-3" d="m241.44,421.34s27.05-58.86,72.94-7.98c0,0,34.95,46.74-16.96,63.85-29.26,9.64-25.12-57.09,29.37-14.3,16.52,12.97,0,229.12,0,229.12"/>
        <path class="cls-3" d="m461.39,421.34s-27.05-58.86-72.94-7.98c0,0-34.95,46.74,16.96,63.85,29.26,9.64,25.12-57.09-29.37-14.3-16.52,12.97,0,229.12,0,229.12"/>
        <rect class="cls-3" x="260.51" y="695.97" width="186" height="42.12"/>
        <rect class="cls-3" x="272.13" y="739.09" width="163.86" height="32.37"/>
        <path class="cls-3" d="m279.57,770.46s-.66,78.26,73.94,78.26,75.04-78.26,75.04-78.26h-148.98Z"/>
        <polygon class="cls-2" points="280.76 786.49 427.18 786.49 428.55 773.46 279.57 773.46 280.76 786.49"/>
    </g>
</svg>