<?xml version="1.0" encoding="UTF-8"?>
<svg id="Layer_2" data-name="Layer 2" xmlns="http://www.w3.org/2000/svg" viewBox="0 0 750.74 395.51">
  <defs>
    <style>
      .cls-1 {
        fill: white;
        stroke: #f8acae;
        stroke-width: 3;
        stroke-dasharray: 1000;
        stroke-dashoffset: 1000;
        animation: dash 5s forwards, filler 1s forwards 3s;
      }

      @keyframes dash {
        to {
          stroke-dashoffset: 0;
        }
      }
      @keyframes filler {
        to {
          fill: #facc15;
        }
      }
    </style>
  </defs>
  <g id="Layer_1-2" data-name="Layer 1">
    <g>
      <path class="cls-1" d="m147.62,0c6.12,0,10.33,3.85,10.33,9.45,0,8.23-12.6,14.88-25.03,18.2-4.2,10.5-8.23,23.45-11.55,34.83-5.77,18.38-9.62,30.1-12.95,38.33-2.45,5.95-5.08,11.38-8.23,16.28,4.73,4.38,9.45,9.1,14.35,13.83,14.53,14.53,30.1,30.98,46.03,30.98,8.75,0,16.8-3.5,19.6-9.63.52-1.4,1.92-2.27,3.32-2.27,2.45,0,3.68,2.45,3.68,3.85,0,.35-.18.88-.35,1.4-4.38,9.8-15.93,14.18-26.43,14.18-18.55,0-35.88-18.03-51.1-33.25-4.55-4.38-8.93-8.93-13.3-12.78-.52.7-1.05,1.4-1.57,1.93-6.13,7.17-15.4,11.73-24.68,11.73-12.08-.88-18.2-6.48-18.2-16.8.7-12.25,9.1-19.25,19.25-19.25,7.52,0,15.75,4.55,23.8,11.38,2.62-4.38,4.9-9.28,7-14.35,3.33-8.57,5.95-16.27,12.6-37.8,2.98-9.8,6.48-21,10.15-30.98-3.5.7-7.18,1.23-10.68,1.75-23.45,3.67-49.18,7.7-51.8,26.6-.17.7-.17,1.4-.17,2.1-.18,3.85.88,7.53,2.97,10.33,2.1,2.8,5.08,4.73,9.1,5.25l1.75.17c2.1,0,3.67,1.75,3.5,3.85,0,1.92-1.75,3.5-3.85,3.5-.88,0-1.75,0-2.45-.17-6.12-.88-10.85-3.85-14-8.23-3.15-4.03-4.55-9.45-4.38-15.05,0-.88,0-1.93.18-2.8,3.33-24.33,31.68-28.7,57.93-32.73l14.88-2.27c3.85-10.15,11.38-21.53,20.3-21.53Zm-57.05,118.48c-7.35-5.95-14-10.15-19.95-10.15s-11.38,4.55-11.73,11.9c0,6.83,4.9,9.45,10.85,9.45,7,0,14.35-3.68,19.08-9.1.52-.7,1.05-1.4,1.75-2.1ZM150.07,9.45c0-1.4-1.05-2.45-2.45-2.45-3.85,0-8.4,5.95-11.2,11.9,7.35-1.58,13.65-6.65,13.65-9.45Z"/>
      <path class="cls-1" d="m182.79,97.83c0,.52-.17,1.05-.35,1.58-8.4,18.9-17.5,36.75-32.2,36.75-8.4,0-12.95-6.65-12.6-14.7.52-13.65,12.95-45.68,20.65-65.63.53-1.58,1.93-2.45,3.33-2.45,2.27,0,4.55,1.75,3.5,4.73-16.98,47.78-20.12,55.83-20.12,63.35,0,5.08,1.57,7.35,5.25,7.35,10.85,0,18.9-18.03,25.38-32.38.7-1.4,2.1-2.27,3.5-2.27.52,0,.88.17,1.4.35,1.4.53,2.27,1.93,2.27,3.33Zm-19.95-59.33c0-3.32,2.8-5.95,6.12-5.95s5.95,2.63,5.95,5.95-2.62,5.95-5.95,5.95-6.12-2.62-6.12-5.95Z"/>
      <path class="cls-1" d="m219.19,97.83c0,.52-.17,1.05-.35,1.58-10.15,21.88-19.95,36.75-36.05,36.75-8.4,0-12.95-6.3-12.95-14.7,0-6.48,4.38-21.7,9.98-36.05l8.92-25.03h-11.02c-2.1,0-3.68-1.58-3.68-3.67,0-1.93,1.58-3.68,3.68-3.68h13.48c.35-.7,8.93-25.38,9.1-26.08.52-1.58,1.93-2.45,3.5-2.45,2.62,0,4.38,2.62,3.5,4.9.53-1.05-7,20.3-8.23,23.63h11.73c2.1,0,3.67,1.75,3.67,3.68,0,2.1-1.58,3.67-3.67,3.67h-14.35c-1.05,3.33-4.02,11.38-9.8,27.65-7.17,20.3-9.45,28.35-9.45,33.43,0,4.73,2.1,7.35,5.6,7.35,12.6,0,21-14.53,29.23-32.55.7-1.22,2.1-2.1,3.5-2.1.52,0,1.05.17,1.57.35,1.23.7,2.1,1.93,2.1,3.33Z"/>
      <path class="cls-1" d="m255.59,97.83c0,.52-.17,1.05-.35,1.58-10.15,21.88-19.95,36.75-36.05,36.75-8.4,0-12.95-6.3-12.95-14.7,0-6.48,4.38-21.7,9.98-36.05l8.92-25.03h-11.02c-2.1,0-3.68-1.58-3.68-3.67,0-1.93,1.58-3.68,3.68-3.68h13.48c.35-.7,8.93-25.38,9.1-26.08.52-1.58,1.93-2.45,3.5-2.45,2.62,0,4.38,2.62,3.5,4.9.53-1.05-7,20.3-8.23,23.63h11.73c2.1,0,3.67,1.75,3.67,3.68,0,2.1-1.58,3.67-3.67,3.67h-14.35c-1.05,3.33-4.02,11.38-9.8,27.65-7.18,20.3-9.45,28.35-9.45,33.43,0,4.73,2.1,7.35,5.6,7.35,12.6,0,21-14.53,29.23-32.55.7-1.22,2.1-2.1,3.5-2.1.52,0,1.05.17,1.57.35,1.23.7,2.1,1.93,2.1,3.33Z"/>
      <path class="cls-1" d="m291.64,97.83c0,.52-.17,1.05-.35,1.58-10.15,21.88-19.95,36.75-36.05,36.75-8.4,0-12.95-6.3-12.95-14.7,0-5.08,1.75-11.38,6.12-25.2,4.73-13.83,9.98-28.53,15.05-43.05l9.1-26.6c.7-1.93,2.8-2.8,4.73-2.28,1.92.7,2.98,2.8,2.27,4.73l-9.1,26.6c-4.9,14-9.98,28-15.05,42.88-3.85,11.9-5.77,19.78-5.77,22.93,0,4.73,2.1,7.35,5.6,7.35,12.6,0,21-14.53,29.23-32.55.7-1.22,2.1-2.1,3.5-2.1.52,0,1.05.17,1.57.35,1.23.7,2.1,1.93,2.1,3.33Z"/>
      <path class="cls-1" d="m347.11,98c0,.53-.17.88-.35,1.4-11.38,25.2-24.68,36.75-42.35,36.75-14.52,0-23.28-9.62-22.93-23.98,1.05-22.4,19.25-58.8,39.9-58.8,8.75,0,14.88,4.55,14.88,12.95,0,18.55-26.08,29.75-45.5,34.48-1.23,4.55-1.75,7.88-1.93,11.55-.35,9.98,5.25,16.1,15.75,16.45,14.35.35,25.55-9.8,35.35-32.38.88-1.75,2.98-2.62,4.9-1.93,1.4.7,2.27,2.1,2.27,3.5Zm-18.2-31.68c0-4.73-3.67-5.6-7.52-5.6-12.08,0-22.23,18.2-27.83,31.68,14.53-4.55,35.35-13.12,35.35-26.08Z"/>
      <path class="cls-1" d="m457.36,41.13c1.75,6.48,4.72,13.13,7.88,19.95,5.42,11.9,11.03,24.33,11.03,37.8,0,27.48-20.48,46.03-46.9,46.03-23.28,0-39.9-16.27-39.9-37.63s16.45-38.15,35.35-38.15c14.53,0,24.5,11.73,24.5,25.2,0,.7,0,1.75-.35,3.15-.35,1.23-1.58,2.62-3.33,2.62-2.27,0-4.02-1.75-3.85-4.02,1.05-10.15-6.12-19.6-16.98-19.6-15.4,0-28,14.7-28,31.33,0,17.5,14.35,29.75,33.08,29.75,23.1,0,39.03-16.8,39.03-38.68,0-12.08-5.25-23.62-10.33-34.83-3.33-7.35-6.47-14.53-8.4-21.53-2.62.17-5.42.35-8.57.35-23.1,0-40.08-10.15-50.05-30.63-.17-.52-.35-1.05-.35-1.75,0-2.45,2.28-3.5,3.67-3.5s2.62.7,3.33,2.1c8.58,17.85,23.1,26.43,43.05,26.43,2.8,0,5.25-.17,7.53-.35-.17-1.58-.35-2.98-.35-4.55,0-12.25,7.18-25.38,19.08-25.38,7.35,0,11.2,5.78,10.85,12.95-.52,10.33-8.05,18.9-21,22.93Zm9.45-28.53c-7.18,0-10.85,9.98-10.85,17.85,0,1.05,0,2.27.17,3.32,14.53-5.42,14.88-12.77,14.88-15.58,0-3.67-1.4-5.6-4.2-5.6Z"/>
      <path class="cls-1" d="m566.03,98c0,.35-.17.88-.35,1.4-11.9,26.43-20.12,36.75-32.03,36.75-8.58,0-12.6-6.12-12.6-14.7,0-16.1,13.65-38.5,13.65-51.98,0-5.08-2.27-9.1-9.1-9.1-4.38,0-9.28,4.02-13.83,9.62-11.03,14-12.6,20.83-28.18,63.53-.7,2.1-2.8,2.98-4.72,2.45-1.93-.7-2.98-2.8-2.28-4.73,16.62-46.2,31.68-87.85,37.45-104.83.53-1.4,1.93-2.27,3.5-2.27,2.62,0,4.38,2.62,3.5,4.9-1.58,4.55-5.43,15.58-11.38,32.2,5.08-5.08,10.33-8.23,15.93-8.23,12.42,0,16.45,7.18,16.45,16.45,0,13.3-13.65,39.38-13.65,51.98,0,5.08,1.58,7.35,5.25,7.35,8.4,0,15.23-9.8,25.2-32.38.7-1.4,1.93-2.27,3.33-2.27.53,0,1.05.17,1.58.35,1.4.7,2.28,1.93,2.28,3.5Z"/>
      <path class="cls-1" d="m607.67,124.95c-4.9,0-9.45-1.58-13.3-4.73-6.48,8.75-15.4,15.93-23.8,15.93-11.38,0-15.23-7.52-15.23-17.68,0-20.3,9.1-37.28,14.88-46.73,7.35-12.25,15.92-18.38,24.67-18.38,11.55.35,17.5,8.23,17.5,18.73,0,11.03-5.6,28.18-13.65,41.83,1.92,2.45,4.9,3.68,8.92,3.68,7.35,0,13.48-6.65,19.6-21.18.52-1.4,1.92-2.27,3.33-2.27,2.62,0,4.55,2.62,3.5,5.07-7.7,17.68-15.93,25.73-26.43,25.73Zm-10.67-26.08c-.53,1.4-.53,2.8-.7,4.03,5.42-10.85,8.75-22.93,8.75-30.98,0-7.35-4.38-11.2-10.33-11.2-6.65,0-12.95,6.12-18.03,14.88-4.55,7.53-13.83,24.5-13.83,42.53,0,6.3,2.1,10.68,7.7,10.68,6.48,0,13.83-7,19.6-15.23-1.92-4.55-1.58-12.25-.35-16.63.35-1.75,1.93-2.8,3.68-2.8,2.45,0,4.2,2.27,3.5,4.72Z"/>
      <path class="cls-1" d="m700.95,97.83c0,.52-.17.88-.35,1.4-3.68,12.95-15.05,25.73-27.13,25.73-5.08,0-9.45-1.92-12.08-4.55-7.17,9.63-16.1,16.63-26.25,16.28-6.65-.35-10.68-2.62-12.6-7.35-7.88,21.88-15.05,41.83-16.8,47.08-.52,1.58-1.92,2.45-3.5,2.45-2.62,0-4.38-2.62-3.5-4.9l19.6-54.78c9.98-27.3,20.12-55.48,22.23-60.9l1.05-2.8c.53-1.58,1.92-2.45,3.5-2.45,2.62,0,4.38,2.62,3.5,4.9l-1.4,3.68c4.9-5.08,10.5-8.58,16.97-8.58,11.03,0,14.7,9.1,14.7,19.95,0,12.08-7.17,31.68-13.47,41.13,2.1,2.27,5.08,3.5,8.22,3.5,9.28,0,17.33-11.38,20.13-21.18.7-1.4,1.92-2.27,3.32-2.27.53,0,1.05.17,1.58.35,1.4.53,2.28,1.93,2.28,3.33Zm-37.28,1.05c-.53,1.58-.7,3.15-.88,4.55,5.08-10.68,8.58-22.05,8.58-30.8,0-7.35-1.58-12.25-6.83-12.25-14.35,0-25.03,26.78-32.03,44.45-2.63,7.35-3.85,9.63-3.85,15.4,0,6.12,1.75,8.93,6.65,9.1,8.05.18,15.58-6.3,21.53-15.4-2.28-5.25-1.75-12.08-.35-16.98.35-1.75,1.93-2.8,3.5-2.8,2.45,0,4.2,2.27,3.68,4.72Z"/>
      <path class="cls-1" d="m75.08,278.95c-9.98,32.9-20.3,67.2-49.53,67.2-14.35,0-25.55-9.28-25.55-23.45,0-15.23,12.08-28.88,25.2-28.88,1.75,0,3.33,0,5.08.7,1.58.7,2.62,1.92,2.62,3.5,0,2.45-2.27,4.38-4.73,3.67-.88-.35-1.75-.35-2.8-.35-9.45,0-18.03,10.67-18.03,21,0,10.85,8.23,16.45,18.03,16.45,24.85,0,34.48-34.65,42.7-61.95,4.02-13.47,8.05-26.42,12.95-36.05,3.68-6.82,11.03-13.3,16.63-13.3,1.75,0,3.32,1.22,3.67,3.15,0,2.62-1.57,3.85-2.98,4.2-4.02.7-8.75,5.25-10.68,9.45-4.73,9.1-8.57,21.7-12.6,34.65Zm40.43,7.17l3.15,3.67c5.95,7.53,8.75,17.33,8.75,26.95,0,22.58-15.75,40.25-38.5,40.25-17.5,0-30.28-8.4-30.28-22.75,0-11.03,8.75-19.08,18.03-19.08,8.05,0,14,5.77,17.15,14,.88,2.28-.7,4.9-3.5,4.9-1.58,0-2.98-.88-3.5-2.45-1.92-5.6-5.95-9.1-9.98-9.1-5.95,0-10.85,5.6-10.85,11.73,0,10.85,11.2,15.4,22.93,15.4,19.43,0,30.98-14.88,30.98-33.25,0-10.15-4.02-20.83-11.55-26.78-3.85,1.58-11.2,2.98-15.4,2.98-7.88,0-14.18-1.4-14.18-8.93,0-5.6,3.5-8.58,9.1-8.58,6.48,0,15.75,2.28,21.35,6.12,10.85-5.77,17.85-17.5,17.85-28.17.52-17.33-13.83-28.88-31.68-28.88-33.43,0-49.18,22.58-50.23,58.45,0,2.45-2.1,3.67-3.85,3.67-1.93,0-3.68-1.58-3.68-3.67,0-38.33,19.95-65.8,57.93-65.8,22.05,0,39.38,14.52,38.85,36.58,0,12.6-7.88,25.38-18.9,32.73Zm-16.28-1.58c-1.75-.7-9.1-2.1-10.67-2.1-1.4,0-2.45.17-2.45,1.4,0,1.4,5.08,1.4,7.7,1.4,1.92,0,3.67-.35,5.42-.7Z"/>
      <path class="cls-1" d="m183.05,307.83c0,.53-.17,1.05-.35,1.58-8.4,18.9-17.5,36.75-32.2,36.75-8.4,0-12.95-6.65-12.6-14.7.52-13.65,12.95-45.68,20.65-65.63.53-1.58,1.93-2.45,3.33-2.45,2.27,0,4.55,1.75,3.5,4.72-16.98,47.78-20.12,55.83-20.12,63.35,0,5.08,1.57,7.35,5.25,7.35,10.85,0,18.9-18.03,25.38-32.38.7-1.4,2.1-2.28,3.5-2.28.52,0,.88.17,1.4.35,1.4.53,2.27,1.93,2.27,3.33Zm-19.95-59.33c0-3.32,2.8-5.95,6.12-5.95s5.95,2.63,5.95,5.95-2.62,5.95-5.95,5.95-6.12-2.62-6.12-5.95Z"/>
      <path class="cls-1" d="m255.32,308c0,.53-.17,1.05-.35,1.58-10.85,25.55-25.38,41.83-50.93,49.35-8.4,23.97-19.25,36.4-31.85,36.58-10.5.17-17.33-6.65-17.33-16.98,0-11.02,8.58-19.08,29.58-22.92,4.38-.7,9.1-1.58,13.83-2.8l5.25-15.05c-4.73,4.9-10.33,8.4-16.63,8.4-11.55,0-14.35-8.93-14.35-20.13.88-23.1,17.5-62.65,38.33-62.65,7.88,0,13.13,3.67,16.1,9.62l2.8-7.17c.52-1.58,1.92-2.45,3.33-2.45,2.45,0,4.73,1.92,3.67,5.08-2.8,6.82-7.52,19.42-13.12,34.3l-9.28,26.08-7.35,21.35c20.13-6.83,32.38-22.92,41.13-43.58.7-1.4,1.92-2.28,3.32-2.28.53,0,1.05.17,1.58.35,1.4.7,2.27,1.92,2.27,3.32Zm-59.85,53.03c-3.32.7-6.48,1.4-9.62,1.92-16.1,2.8-22.93,7.35-23.63,15.4,0,6.12,4.03,9.98,9.98,9.8,9.45-.17,17.5-9.45,23.28-27.12Zm22.75-66.15l3.85-9.97c0-9.28-4.73-14.18-11.02-14.18-16.28.35-30.63,38.15-30.98,55.48-.35,7.17,0,12.6,6.48,12.6,14,0,24.68-26.08,31.68-43.93Z"/>
      <path class="cls-1" d="m372.75,278.95c-9.63,31.5-20.48,67.38-49.53,67.38-14.35,0-25.55-9.28-25.55-23.62,0-15.23,11.9-28.88,25.2-28.88,1.75,0,3.32.17,5.07.7,1.58.52,2.62,1.92,2.62,3.5,0,2.45-2.27,4.2-4.73,3.67-.88-.17-1.75-.35-2.8-.35-9.62,0-18.03,10.85-18.03,21,0,10.85,8.23,16.62,18.03,16.62,24.5,0,34.48-35.35,42.7-62.13,4.02-13.47,8.05-26.42,12.95-36.05,3.5-6.65,9.1-11.55,15.92-13.3,2.45-.53,4.03.88,4.38,3.15,0,2.62-1.58,3.85-2.97,4.2-4.03.7-8.75,5.25-10.68,9.45-4.72,9.1-8.57,21.7-12.6,34.65Zm10.85,79.1c-16.62,0-29.05-8.75-29.05-22.93,0-11.38,8.4-19.25,18.03-19.25,8.22,0,14.17,5.77,16.97,14,.7,2.27-.88,4.9-3.33,4.9-1.58,0-2.97-.88-3.5-2.45-1.92-4.9-5.6-9.1-10.15-9.1-5.78,0-10.68,5.25-10.68,11.9,0,10.5,10.68,15.58,21.7,15.58,30.45,0,46.55-43.93,46.55-75.6,0-28.88-11.03-49.53-38.85-50.93-31.85,0-50.05,24.85-50.4,58.45,0,2.1-1.57,3.67-3.67,3.67-1.93,0-3.68-1.58-3.68-3.67.35-38.5,22.23-65.8,57.75-65.8,32.55,1.57,46.2,25.38,46.2,58.28,0,36.93-19.08,82.95-53.9,82.95Z"/>
      <path class="cls-1" d="m509.07,308c0,.53-.17.88-.35,1.4-11.38,25.2-24.68,36.75-42.35,36.75-14.53,0-23.28-9.62-22.93-23.98,1.05-22.4,19.25-58.8,39.9-58.8,8.75,0,14.88,4.55,14.88,12.95,0,18.55-26.08,29.75-45.5,34.48-1.23,4.55-1.75,7.88-1.92,11.55-.35,9.98,5.25,16.1,15.75,16.45,14.35.35,25.55-9.8,35.35-32.38.88-1.75,2.97-2.62,4.9-1.93,1.4.7,2.27,2.1,2.27,3.5Zm-18.2-31.67c0-4.73-3.67-5.6-7.53-5.6-12.08,0-22.22,18.2-27.83,31.68,14.53-4.55,35.35-13.12,35.35-26.08Z"/>
      <path class="cls-1" d="m524.64,346.15c-14.53,0-26.43-11.38-26.43-25.55,1.05-15.75,9.8-26.08,23.8-26.08,9.1,0,16.45,8.05,16.8,17.67,0,2.1-1.58,3.68-3.67,3.68s-3.67-1.58-3.67-3.68c-.35-5.95-4.73-10.33-9.28-10.33-9.62,0-15.92,8.05-16.62,18.73,0,10.67,8.92,18.2,19.08,18.2,14.17,0,24.33-9.28,24.67-23.8-.17-7.7-2.8-12.78-12.08-29.05-1.22,1.22-2.45,2.62-3.5,4.03-.7.88-1.75,1.4-2.8,1.4-.88,0-1.92-.17-2.62-.88-.88-.7-1.22-1.92-1.22-2.97,0-.7.35-1.58.88-2.28,2.1-2.45,3.85-4.38,5.95-6.47-1.58-3.68-2.62-7.53-2.62-11.55,0-9.1,5.6-16.8,12.77-16.8,5.08,0,8.05,4.02,8.4,9.1,0,7-4.38,14.7-9.8,20.83,9.1,16.8,13.83,22.93,14,34.83-.35,18.9-14.35,30.98-32.03,30.98Zm20.3-86.63c0-2.45-1.92-1.92-3.67-.17-2.1,2.1-2.62,5.25-2.62,7.7,0,1.92.35,3.67.88,5.6,2.8-3.85,5.42-9.27,5.42-13.12Z"/>
      <path class="cls-1" d="m608.64,307.83c0,.53-.17,1.05-.35,1.58-8.4,18.9-17.5,36.75-32.2,36.75-8.4,0-12.95-6.65-12.6-14.7.52-13.65,12.95-45.68,20.65-65.63.52-1.58,1.92-2.45,3.33-2.45,2.27,0,4.55,1.75,3.5,4.72-16.98,47.78-20.13,55.83-20.13,63.35,0,5.08,1.58,7.35,5.25,7.35,10.85,0,18.9-18.03,25.38-32.38.7-1.4,2.1-2.28,3.5-2.28.52,0,.88.17,1.4.35,1.4.53,2.27,1.93,2.27,3.33Zm-19.95-59.33c0-3.32,2.8-5.95,6.12-5.95s5.95,2.63,5.95,5.95-2.62,5.95-5.95,5.95-6.12-2.62-6.12-5.95Z"/>
      <path class="cls-1" d="m680.91,308c0,.53-.18,1.05-.35,1.58-10.85,25.55-25.38,41.83-50.93,49.35-8.4,23.97-19.25,36.4-31.85,36.58-10.5.17-17.33-6.65-17.33-16.98,0-11.02,8.58-19.08,29.58-22.92,4.38-.7,9.1-1.58,13.83-2.8l5.25-15.05c-4.73,4.9-10.33,8.4-16.63,8.4-11.55,0-14.35-8.93-14.35-20.13.88-23.1,17.5-62.65,38.33-62.65,7.88,0,13.12,3.67,16.1,9.62l2.8-7.17c.53-1.58,1.92-2.45,3.33-2.45,2.45,0,4.72,1.92,3.67,5.08-2.8,6.82-7.53,19.42-13.12,34.3l-9.28,26.08-7.35,21.35c20.12-6.83,32.38-22.92,41.12-43.58.7-1.4,1.93-2.28,3.33-2.28.53,0,1.05.17,1.58.35,1.4.7,2.28,1.92,2.28,3.32Zm-59.85,53.03c-3.33.7-6.47,1.4-9.62,1.92-16.1,2.8-22.93,7.35-23.62,15.4,0,6.12,4.02,9.98,9.97,9.8,9.45-.17,17.5-9.45,23.28-27.12Zm22.75-66.15l3.85-9.97c0-9.28-4.72-14.18-11.03-14.18-16.28.35-30.62,38.15-30.98,55.48-.35,7.17,0,12.6,6.48,12.6,14,0,24.67-26.08,31.68-43.93Z"/>
      <path class="cls-1" d="m750.74,307.83c0,.53-.17,1.05-.35,1.58-11.9,26.43-20.12,36.75-32.03,36.75-8.4,0-12.6-6.12-12.6-14.7,0-16.45,13.65-36.75,13.65-51.98,0-5.08-2.27-9.1-9.1-9.1-10.67,0-23.98,23.62-29.58,38.5l-12.25,34.65c-.7,2.1-2.8,2.97-4.72,2.45-1.92-.7-2.98-2.63-2.28-4.73,9.1-25.2,20.13-56.88,26.95-75.6.52-1.58,1.92-2.45,3.5-2.45,2.62,0,4.38,2.63,3.5,4.9l-1.4,3.5c5.08-5.25,10.5-8.58,16.28-8.58,12.6,0,16.45,7.18,16.45,16.45,0,15.58-13.65,38.5-13.65,51.98,0,5.08,1.58,7.35,5.25,7.35,8.23,0,14.53-9.28,25.2-32.38.7-1.4,1.92-2.28,3.32-2.28.53,0,1.05.17,1.58.35,1.4.7,2.28,1.93,2.28,3.33Z"/>
    </g>
  </g>
</svg>