<?xml version="1.0" encoding="UTF-8"?>
<svg id="Layer_2"
    xmlns="http://www.w3.org/2000/svg" viewBox="0 0 328.01 453.28">
    <defs>
        <style>.cls-1{fill:#fff;}</style>
    </defs>
    <g id="Layer_3">
        <g>
            <path class="cls-1" d="m143.59,356.98c0-5.83.87-10.73,2.62-14.69,1.3-2.92,3.08-5.53,5.33-7.85,2.25-2.32,4.72-4.04,7.4-5.16,3.57-1.51,7.68-2.27,12.34-2.27,8.44,0,15.19,2.62,20.25,7.85,5.06,5.23,7.6,12.51,7.6,21.84s-2.51,16.48-7.54,21.7c-5.03,5.22-11.75,7.83-20.16,7.83s-15.29-2.6-20.31-7.79c-5.03-5.2-7.54-12.35-7.54-21.46Zm11.91-.39c0,6.48,1.5,11.4,4.49,14.75,2.99,3.35,6.8,5.02,11.41,5.02s8.39-1.66,11.35-4.98c2.96-3.32,4.43-8.3,4.43-14.94s-1.44-11.46-4.32-14.69c-2.88-3.23-6.7-4.84-11.46-4.84s-8.61,1.63-11.52,4.9c-2.92,3.27-4.38,8.2-4.38,14.79Z"/>
            <path class="cls-1" d="m208.01,385.26v-57.27h17.3l10.39,39.06,10.27-39.06h17.34v57.27h-10.74v-45.08l-11.37,45.08h-11.13l-11.33-45.08v45.08h-10.74Z"/>
            <path class="cls-1" d="m272.46,356.98c0-5.83.87-10.73,2.62-14.69,1.3-2.92,3.08-5.53,5.33-7.85,2.25-2.32,4.72-4.04,7.4-5.16,3.57-1.51,7.68-2.27,12.34-2.27,8.44,0,15.19,2.62,20.25,7.85,5.06,5.23,7.6,12.51,7.6,21.84s-2.51,16.48-7.54,21.7c-5.03,5.22-11.75,7.83-20.16,7.83s-15.29-2.6-20.31-7.79c-5.03-5.2-7.54-12.35-7.54-21.46Zm11.91-.39c0,6.48,1.5,11.4,4.49,14.75,2.99,3.35,6.8,5.02,11.41,5.02s8.39-1.66,11.35-4.98c2.96-3.32,4.43-8.3,4.43-14.94s-1.44-11.46-4.32-14.69c-2.88-3.23-6.7-4.84-11.46-4.84s-8.61,1.63-11.52,4.9c-2.92,3.27-4.38,8.2-4.38,14.79Z"/>
            <path class="cls-1" d="m.66,452.26v-57.27h18.55c7.03,0,11.61.29,13.75.86,3.28.86,6.03,2.73,8.24,5.61,2.21,2.88,3.32,6.6,3.32,11.15,0,3.52-.64,6.47-1.91,8.87-1.28,2.4-2.9,4.28-4.86,5.64-1.97,1.37-3.96,2.27-6,2.71-2.76.55-6.76.82-11.99.82h-7.54v21.6H.66Zm11.56-47.58v16.25h6.33c4.56,0,7.6-.3,9.14-.9,1.54-.6,2.74-1.54,3.61-2.81.87-1.28,1.31-2.76,1.31-4.45,0-2.08-.61-3.8-1.84-5.16-1.22-1.35-2.77-2.2-4.65-2.54-1.38-.26-4.15-.39-8.32-.39h-5.59Z"/>
            <path class="cls-1" d="m54.06,452.26v-57.27h11.56v22.54h22.66v-22.54h11.56v57.27h-11.56v-25.04h-22.66v25.04h-11.56Z"/>
            <path class="cls-1" d="m109.45,423.98c0-5.83.87-10.73,2.62-14.69,1.3-2.92,3.08-5.53,5.33-7.85,2.25-2.32,4.72-4.04,7.4-5.16,3.57-1.51,7.68-2.27,12.34-2.27,8.44,0,15.19,2.62,20.25,7.85,5.06,5.23,7.6,12.51,7.6,21.84s-2.51,16.48-7.54,21.7c-5.03,5.22-11.75,7.83-20.16,7.83s-15.29-2.6-20.31-7.79c-5.03-5.2-7.54-12.35-7.54-21.46Zm11.91-.39c0,6.48,1.5,11.4,4.49,14.75,2.99,3.35,6.8,5.02,11.41,5.02s8.39-1.66,11.35-4.98c2.96-3.32,4.43-8.3,4.43-14.94s-1.44-11.46-4.32-14.69c-2.88-3.23-6.7-4.84-11.46-4.84s-8.61,1.63-11.52,4.9c-2.92,3.27-4.38,8.2-4.38,14.79Z"/>
            <path class="cls-1" d="m186.91,452.26v-47.58h-16.99v-9.69h45.51v9.69h-16.95v47.58h-11.56Z"/>
            <path class="cls-1" d="m219.1,423.98c0-5.83.87-10.73,2.62-14.69,1.3-2.92,3.08-5.53,5.33-7.85,2.25-2.32,4.72-4.04,7.4-5.16,3.57-1.51,7.68-2.27,12.34-2.27,8.44,0,15.19,2.62,20.25,7.85,5.06,5.23,7.6,12.51,7.6,21.84s-2.51,16.48-7.54,21.7c-5.03,5.22-11.75,7.83-20.16,7.83s-15.29-2.6-20.31-7.79c-5.03-5.2-7.54-12.35-7.54-21.46Zm11.91-.39c0,6.48,1.5,11.4,4.49,14.75,2.99,3.35,6.8,5.02,11.41,5.02s8.39-1.66,11.35-4.98c2.96-3.32,4.43-8.3,4.43-14.94s-1.44-11.46-4.32-14.69c-2.88-3.23-6.7-4.84-11.46-4.84s-8.61,1.63-11.52,4.9c-2.92,3.27-4.38,8.2-4.38,14.79Z"/>
            <path class="cls-1" d="m280.74,433.63l11.25-1.09c.68,3.78,2.05,6.55,4.12,8.32,2.07,1.77,4.86,2.66,8.38,2.66,3.72,0,6.53-.79,8.42-2.36,1.89-1.58,2.83-3.42,2.83-5.53,0-1.35-.4-2.51-1.19-3.46-.79-.95-2.18-1.78-4.16-2.48-1.35-.47-4.44-1.3-9.26-2.5-6.2-1.54-10.55-3.42-13.05-5.66-3.52-3.15-5.27-6.99-5.27-11.52,0-2.92.83-5.64,2.48-8.18,1.65-2.54,4.04-4.47,7.15-5.8,3.11-1.33,6.87-1.99,11.27-1.99,7.19,0,12.6,1.58,16.23,4.73,3.63,3.15,5.54,7.36,5.72,12.62l-11.56.51c-.5-2.94-1.56-5.06-3.18-6.35-1.63-1.29-4.07-1.93-7.32-1.93s-5.99.69-7.89,2.07c-1.22.89-1.84,2.07-1.84,3.55,0,1.35.57,2.51,1.72,3.48,1.46,1.22,5,2.5,10.62,3.83s9.79,2.7,12.48,4.12c2.7,1.42,4.8,3.36,6.33,5.82s2.29,5.5,2.29,9.12c0,3.28-.91,6.35-2.73,9.22-1.82,2.87-4.4,4.99-7.73,6.39-3.33,1.39-7.49,2.09-12.46,2.09-7.24,0-12.8-1.67-16.68-5.02-3.88-3.35-6.2-8.22-6.95-14.63Z"/>
        </g>
        <g>
            <path class="cls-1" d="m143.59,193.47c0-5.83.87-10.73,2.62-14.69,1.3-2.92,3.08-5.53,5.33-7.85,2.25-2.32,4.72-4.04,7.4-5.16,3.57-1.51,7.68-2.27,12.34-2.27,8.44,0,15.19,2.62,20.25,7.85,5.06,5.23,7.6,12.51,7.6,21.84s-2.51,16.48-7.54,21.7c-5.03,5.22-11.75,7.83-20.16,7.83s-15.29-2.6-20.31-7.79c-5.03-5.2-7.54-12.35-7.54-21.46Zm11.91-.39c0,6.48,1.5,11.4,4.49,14.75,2.99,3.35,6.8,5.02,11.41,5.02s8.39-1.66,11.35-4.98c2.96-3.32,4.43-8.3,4.43-14.94s-1.44-11.46-4.32-14.69c-2.88-3.23-6.7-4.84-11.46-4.84s-8.61,1.63-11.52,4.9c-2.92,3.27-4.38,8.2-4.38,14.79Z"/>
            <path class="cls-1" d="m208.01,221.75v-57.27h17.3l10.39,39.06,10.27-39.06h17.34v57.27h-10.74v-45.08l-11.37,45.08h-11.13l-11.33-45.08v45.08h-10.74Z"/>
            <path class="cls-1" d="m272.46,193.47c0-5.83.87-10.73,2.62-14.69,1.3-2.92,3.08-5.53,5.33-7.85,2.25-2.32,4.72-4.04,7.4-5.16,3.57-1.51,7.68-2.27,12.34-2.27,8.44,0,15.19,2.62,20.25,7.85,5.06,5.23,7.6,12.51,7.6,21.84s-2.51,16.48-7.54,21.7c-5.03,5.22-11.75,7.83-20.16,7.83s-15.29-2.6-20.31-7.79c-5.03-5.2-7.54-12.35-7.54-21.46Zm11.91-.39c0,6.48,1.5,11.4,4.49,14.75,2.99,3.35,6.8,5.02,11.41,5.02s8.39-1.66,11.35-4.98c2.96-3.32,4.43-8.3,4.43-14.94s-1.44-11.46-4.32-14.69c-2.88-3.23-6.7-4.84-11.46-4.84s-8.61,1.63-11.52,4.9c-2.92,3.27-4.38,8.2-4.38,14.79Z"/>
            <path class="cls-1" d="m.66,288.75v-57.27h18.55c7.03,0,11.61.29,13.75.86,3.28.86,6.03,2.73,8.24,5.61,2.21,2.88,3.32,6.6,3.32,11.15,0,3.52-.64,6.47-1.91,8.87-1.28,2.4-2.9,4.28-4.86,5.64-1.97,1.37-3.96,2.27-6,2.71-2.76.55-6.76.82-11.99.82h-7.54v21.6H.66Zm11.56-47.58v16.25h6.33c4.56,0,7.6-.3,9.14-.9,1.54-.6,2.74-1.54,3.61-2.81.87-1.28,1.31-2.76,1.31-4.45,0-2.08-.61-3.8-1.84-5.16-1.22-1.35-2.77-2.2-4.65-2.54-1.38-.26-4.15-.39-8.32-.39h-5.59Z"/>
            <path class="cls-1" d="m54.06,288.75v-57.27h11.56v22.54h22.66v-22.54h11.56v57.27h-11.56v-25.04h-22.66v25.04h-11.56Z"/>
            <path class="cls-1" d="m109.45,260.47c0-5.83.87-10.73,2.62-14.69,1.3-2.92,3.08-5.53,5.33-7.85,2.25-2.32,4.72-4.04,7.4-5.16,3.57-1.51,7.68-2.27,12.34-2.27,8.44,0,15.19,2.62,20.25,7.85,5.06,5.23,7.6,12.51,7.6,21.84s-2.51,16.48-7.54,21.7c-5.03,5.22-11.75,7.83-20.16,7.83s-15.29-2.6-20.31-7.79c-5.03-5.2-7.54-12.35-7.54-21.46Zm11.91-.39c0,6.48,1.5,11.4,4.49,14.75,2.99,3.35,6.8,5.02,11.41,5.02s8.39-1.66,11.35-4.98c2.96-3.32,4.43-8.3,4.43-14.94s-1.44-11.46-4.32-14.69c-2.88-3.23-6.7-4.84-11.46-4.84s-8.61,1.63-11.52,4.9c-2.92,3.27-4.38,8.2-4.38,14.79Z"/>
            <path class="cls-1" d="m186.91,288.75v-47.58h-16.99v-9.69h45.51v9.69h-16.95v47.58h-11.56Z"/>
            <path class="cls-1" d="m219.1,260.47c0-5.83.87-10.73,2.62-14.69,1.3-2.92,3.08-5.53,5.33-7.85,2.25-2.32,4.72-4.04,7.4-5.16,3.57-1.51,7.68-2.27,12.34-2.27,8.44,0,15.19,2.62,20.25,7.85,5.06,5.23,7.6,12.51,7.6,21.84s-2.51,16.48-7.54,21.7c-5.03,5.22-11.75,7.83-20.16,7.83s-15.29-2.6-20.31-7.79c-5.03-5.2-7.54-12.35-7.54-21.46Zm11.91-.39c0,6.48,1.5,11.4,4.49,14.75,2.99,3.35,6.8,5.02,11.41,5.02s8.39-1.66,11.35-4.98c2.96-3.32,4.43-8.3,4.43-14.94s-1.44-11.46-4.32-14.69c-2.88-3.23-6.7-4.84-11.46-4.84s-8.61,1.63-11.52,4.9c-2.92,3.27-4.38,8.2-4.38,14.79Z"/>
            <path class="cls-1" d="m280.74,270.12l11.25-1.09c.68,3.78,2.05,6.55,4.12,8.32,2.07,1.77,4.86,2.66,8.38,2.66,3.72,0,6.53-.79,8.42-2.36,1.89-1.58,2.83-3.42,2.83-5.53,0-1.35-.4-2.51-1.19-3.46-.79-.95-2.18-1.78-4.16-2.48-1.35-.47-4.44-1.3-9.26-2.5-6.2-1.54-10.55-3.42-13.05-5.66-3.52-3.15-5.27-6.99-5.27-11.52,0-2.92.83-5.64,2.48-8.18,1.65-2.54,4.04-4.47,7.15-5.8,3.11-1.33,6.87-1.99,11.27-1.99,7.19,0,12.6,1.58,16.23,4.73,3.63,3.15,5.54,7.36,5.72,12.62l-11.56.51c-.5-2.94-1.56-5.06-3.18-6.35-1.63-1.29-4.07-1.93-7.32-1.93s-5.99.69-7.89,2.07c-1.22.89-1.84,2.07-1.84,3.55,0,1.35.57,2.51,1.72,3.48,1.46,1.22,5,2.5,10.62,3.83s9.79,2.7,12.48,4.12c2.7,1.42,4.8,3.36,6.33,5.82s2.29,5.5,2.29,9.12c0,3.28-.91,6.35-2.73,9.22-1.82,2.87-4.4,4.99-7.73,6.39-3.33,1.39-7.49,2.09-12.46,2.09-7.24,0-12.8-1.67-16.68-5.02-3.88-3.35-6.2-8.22-6.95-14.63Z"/>
        </g>
        <path class="cls-1" d="m142.93,29.96c0-5.83.87-10.73,2.62-14.69,1.3-2.92,3.08-5.53,5.33-7.85,2.25-2.32,4.72-4.04,7.4-5.16,3.57-1.51,7.68-2.27,12.34-2.27,8.44,0,15.19,2.62,20.25,7.85,5.06,5.23,7.6,12.51,7.6,21.84s-2.51,16.48-7.54,21.7c-5.03,5.22-11.75,7.83-20.16,7.83s-15.29-2.6-20.31-7.79c-5.03-5.2-7.54-12.35-7.54-21.46Zm11.91-.39c0,6.48,1.5,11.4,4.49,14.75,2.99,3.35,6.8,5.02,11.41,5.02s8.39-1.66,11.35-4.98c2.96-3.32,4.43-8.3,4.43-14.94s-1.44-11.46-4.32-14.69c-2.88-3.23-6.7-4.84-11.46-4.84s-8.61,1.63-11.52,4.9c-2.92,3.27-4.38,8.2-4.38,14.79Z"/>
        <path class="cls-1" d="m207.34,58.24V.98h17.3l10.39,39.06L245.31.98h17.34v57.27h-10.74V13.16l-11.37,45.08h-11.13l-11.33-45.08v45.08h-10.74Z"/>
        <path class="cls-1" d="m271.8,29.96c0-5.83.87-10.73,2.62-14.69,1.3-2.92,3.08-5.53,5.33-7.85,2.25-2.32,4.72-4.04,7.4-5.16,3.57-1.51,7.68-2.27,12.34-2.27,8.44,0,15.19,2.62,20.25,7.85,5.06,5.23,7.6,12.51,7.6,21.84s-2.51,16.48-7.54,21.7c-5.03,5.22-11.75,7.83-20.16,7.83s-15.29-2.6-20.31-7.79c-5.03-5.2-7.54-12.35-7.54-21.46Zm11.91-.39c0,6.48,1.5,11.4,4.49,14.75,2.99,3.35,6.8,5.02,11.41,5.02s8.39-1.66,11.35-4.98c2.96-3.32,4.43-8.3,4.43-14.94s-1.44-11.46-4.32-14.69c-2.88-3.23-6.7-4.84-11.46-4.84s-8.61,1.63-11.52,4.9c-2.92,3.27-4.38,8.2-4.38,14.79Z"/>
        <path class="cls-1" d="m0,125.24v-57.27h18.55c7.03,0,11.61.29,13.75.86,3.28.86,6.03,2.73,8.24,5.61,2.21,2.88,3.32,6.6,3.32,11.15,0,3.52-.64,6.47-1.91,8.87-1.28,2.4-2.9,4.28-4.86,5.64-1.97,1.37-3.96,2.27-6,2.71-2.76.55-6.76.82-11.99.82h-7.54v21.6H0Zm11.56-47.58v16.25h6.33c4.56,0,7.6-.3,9.14-.9,1.54-.6,2.74-1.54,3.61-2.81.87-1.28,1.31-2.76,1.31-4.45,0-2.08-.61-3.8-1.84-5.16-1.22-1.35-2.77-2.2-4.65-2.54-1.38-.26-4.15-.39-8.32-.39h-5.59Z"/>
        <path class="cls-1" d="m53.4,125.24v-57.27h11.56v22.54h22.66v-22.54h11.56v57.27h-11.56v-25.04h-22.66v25.04h-11.56Z"/>
        <path class="cls-1" d="m108.79,96.96c0-5.83.87-10.73,2.62-14.69,1.3-2.92,3.08-5.53,5.33-7.85,2.25-2.32,4.72-4.04,7.4-5.16,3.57-1.51,7.68-2.27,12.34-2.27,8.44,0,15.19,2.62,20.25,7.85,5.06,5.23,7.6,12.51,7.6,21.84s-2.51,16.48-7.54,21.7c-5.03,5.22-11.75,7.83-20.16,7.83s-15.29-2.6-20.31-7.79c-5.03-5.2-7.54-12.35-7.54-21.46Zm11.91-.39c0,6.48,1.5,11.4,4.49,14.75,2.99,3.35,6.8,5.02,11.41,5.02s8.39-1.66,11.35-4.98c2.96-3.32,4.43-8.3,4.43-14.94s-1.44-11.46-4.32-14.69c-2.88-3.23-6.7-4.84-11.46-4.84s-8.61,1.63-11.52,4.9c-2.92,3.27-4.38,8.2-4.38,14.79Z"/>
        <path class="cls-1" d="m186.25,125.24v-47.58h-16.99v-9.69h45.51v9.69h-16.95v47.58h-11.56Z"/>
        <path class="cls-1" d="m218.44,96.96c0-5.83.87-10.73,2.62-14.69,1.3-2.92,3.08-5.53,5.33-7.85,2.25-2.32,4.72-4.04,7.4-5.16,3.57-1.51,7.68-2.27,12.34-2.27,8.44,0,15.19,2.62,20.25,7.85,5.06,5.23,7.6,12.51,7.6,21.84s-2.51,16.48-7.54,21.7c-5.03,5.22-11.75,7.83-20.16,7.83s-15.29-2.6-20.31-7.79c-5.03-5.2-7.54-12.35-7.54-21.46Zm11.91-.39c0,6.48,1.5,11.4,4.49,14.75,2.99,3.35,6.8,5.02,11.41,5.02s8.39-1.66,11.35-4.98c2.96-3.32,4.43-8.3,4.43-14.94s-1.44-11.46-4.32-14.69c-2.88-3.23-6.7-4.84-11.46-4.84s-8.61,1.63-11.52,4.9c-2.92,3.27-4.38,8.2-4.38,14.79Z"/>
        <path class="cls-1" d="m280.08,106.61l11.25-1.09c.68,3.78,2.05,6.55,4.12,8.32,2.07,1.77,4.86,2.66,8.38,2.66,3.72,0,6.53-.79,8.42-2.36,1.89-1.58,2.83-3.42,2.83-5.53,0-1.35-.4-2.51-1.19-3.46-.79-.95-2.18-1.78-4.16-2.48-1.35-.47-4.44-1.3-9.26-2.5-6.2-1.54-10.55-3.42-13.05-5.66-3.52-3.15-5.27-6.99-5.27-11.52,0-2.92.83-5.64,2.48-8.18,1.65-2.54,4.04-4.47,7.15-5.8,3.11-1.33,6.87-1.99,11.27-1.99,7.19,0,12.6,1.58,16.23,4.73,3.63,3.15,5.54,7.36,5.72,12.62l-11.56.51c-.5-2.94-1.56-5.06-3.18-6.35-1.63-1.29-4.07-1.93-7.32-1.93s-5.99.69-7.89,2.07c-1.22.89-1.84,2.07-1.84,3.55,0,1.35.57,2.51,1.72,3.48,1.46,1.22,5,2.5,10.62,3.83s9.79,2.7,12.48,4.12c2.7,1.42,4.8,3.36,6.33,5.82s2.29,5.5,2.29,9.12c0,3.28-.91,6.35-2.73,9.22-1.82,2.87-4.4,4.99-7.73,6.39-3.33,1.39-7.49,2.09-12.46,2.09-7.24,0-12.8-1.67-16.68-5.02-3.88-3.35-6.2-8.22-6.95-14.63Z"/>
    </g>
</svg>